<svg width="17" height="17" viewBox="0 0 17 17" fill="none" xmlns="http://www.w3.org/2000/svg">
<path fill-rule="evenodd" clip-rule="evenodd" d="M8.5 0C5.70331 0 3.74302 0.0889869 2.50958 0.173506C1.27613 0.258025 0.295044 1.17656 0.185489 2.40525C0.0914222 3.46044 0 5.05401 0 7.26044V15.6945C0 16.8077 1.32487 17.4083 2.1828 16.6837L4.81213 14.4624C5.82722 14.497 7.05122 14.5209 8.5 14.5209C11.2967 14.5209 13.257 14.4319 14.4904 14.3474C15.7239 14.2629 16.705 13.3447 16.8145 12.116C16.9086 11.0604 17 9.46687 17 7.26044C17 5.05401 16.9086 3.46044 16.8145 2.40488C16.705 1.17619 15.7239 0.258397 14.4904 0.173506C13.257 0.0893592 11.2967 0 8.5 0ZM9.58876 9.47655C10.4267 9.0156 10.8581 8.51296 10.9253 7.65958C10.6699 7.65889 10.4145 7.65553 10.1592 7.64952C9.65676 7.63687 9.28049 7.26528 9.26727 6.77008C9.25903 6.44622 9.25513 6.12226 9.25556 5.7983C9.25556 5.3664 9.26122 5.02795 9.26878 4.76694C9.28238 4.30079 9.62351 3.94707 10.0965 3.92771C10.359 3.91729 10.7017 3.90947 11.1444 3.90947C11.5872 3.90947 11.9298 3.91691 12.1924 3.92808C12.6654 3.9467 13.0065 4.30079 13.0201 4.76732C13.0277 5.02609 13.0333 5.36081 13.0333 5.7875V7.66032H13.0246C12.9128 9.23714 11.7308 10.1769 10.3915 10.5831C10.203 10.6401 9.99487 10.6129 9.85244 10.4785C9.68698 10.3225 9.54531 10.1296 9.44142 9.96914C9.32998 9.79638 9.40742 9.57633 9.58876 9.47655ZM5.63644 7.65958C5.5692 8.51296 5.13778 9.0156 4.29987 9.47655C4.11853 9.57633 4.04109 9.79675 4.15253 9.96914C4.25642 10.1296 4.39809 10.3225 4.56356 10.4785C4.70636 10.6125 4.91413 10.6401 5.10264 10.5827C6.44187 10.1769 7.62393 9.23714 7.73575 7.65995H7.74444V5.7875C7.74444 5.36081 7.73878 5.02609 7.73122 4.76732C7.71762 4.30079 7.37649 3.9467 6.90351 3.92771C6.64096 3.91729 6.29831 3.90947 5.85556 3.90947C5.4128 3.90947 5.07016 3.91691 4.8076 3.92808C4.33462 3.9467 3.99349 4.30079 3.97989 4.76732C3.97233 5.02795 3.96667 5.36602 3.96667 5.79793C3.96667 6.19818 3.97158 6.51764 3.978 6.76971C3.9916 7.26491 4.36749 7.63687 4.87031 7.64952C5.07658 7.65436 5.32931 7.65846 5.63644 7.65958Z" fill="#84FF70" fill-opacity="0.8"/>
</svg>
